Coordinates
version=1
nRows=17
nColumns=38
inDegrees=no

Units are S.I. units (second, meters, Newtons, ...)
If the header above contains a line with 'inDegrees', this indicates whether rotational values are in degrees (yes) or radians (no).

endheader
time	pelvis_tilt	pelvis_list	pelvis_rotation	pelvis_tx	pelvis_ty	pelvis_tz	hip_flexion_r	hip_adduction_r	hip_rotation_r	knee_angle_r	ankle_angle_r	subtalar_angle_r	mtp_angle_r	hip_flexion_l	hip_adduction_l	hip_rotation_l	knee_angle_l	ankle_angle_l	subtalar_angle_l	mtp_angle_l	lumbar_extension	lumbar_bending	lumbar_rotation	arm_flex_r	arm_add_r	arm_rot_r	elbow_flex_r	pro_sup_r	wrist_flex_r	wrist_dev_r	arm_flex_l	arm_add_l	arm_rot_l	elbow_flex_l	pro_sup_l	wrist_flex_l	wrist_dev_l
3.35	0.132936	1.41944	1.542	0.581276	0.904364	1.01467	0.626697	-0.0489008	-0.130252	0.494913	-0.188793	0	0	-0.148006	0.00796643	-0.150415	0.151925	-0.342802	0	0	-0.036901	-0.0921211	0.00576688	0.455185	-0.647316	0.497291	1.54212	1.5708	0	0	0.593974	-0.172855	0.739651	1.35783	1.5708	0	0
3.36	0.136799	1.41973	1.54584	0.581483	0.912065	1.01399	0.620249	-0.0483372	-0.130271	0.503973	-0.191367	0	0	-0.15356	0.00406241	-0.148036	0.156045	-0.3434	0	0	-0.0351664	-0.0887944	0.00267466	0.447478	-0.648803	0.491203	1.54999	1.5708	0	0	0.591432	-0.171556	0.737538	1.35931	1.5708	0	0
3.37	0.145402	1.41984	1.54424	0.5818	0.919796	1.01356	0.616569	-0.0483932	-0.133598	0.51081	-0.194651	0	0	-0.158451	-0.00071741	-0.144678	0.161196	-0.344791	0	0	-0.0332474	-0.0842266	0.000557058	0.439656	-0.650283	0.485231	1.55765	1.5708	0	0	0.589193	-0.169934	0.736055	1.35984	1.5708	0	0
3.38	0.158904	1.41972	1.53659	0.58221	0.927515	1.01346	0.614055	-0.0473211	-0.136353	0.513187	-0.199343	0	0	-0.16248	-0.00617114	-0.140744	0.167474	-0.347111	0	0	-0.0311747	-0.0781925	-0.000221406	0.432208	-0.652197	0.479752	1.56483	1.5708	0	0	0.587242	-0.167736	0.735124	1.3592	1.5708	0	0
3.39	0.177436	1.41985	1.52252	0.58274	0.935278	1.01372	0.610102	-0.0436798	-0.137895	0.512383	-0.208639	0	0	-0.166286	-0.0123208	-0.137429	0.17504	-0.351014	0	0	-0.0293212	-0.0708583	0.00077258	0.424352	-0.654288	0.473611	1.57158	1.5708	0	0	0.585624	-0.165368	0.734967	1.35695	1.5708	0	0
3.4	0.196958	1.41989	1.50532	0.58353	0.94309	1.0142	0.606084	-0.0387557	-0.139587	0.514503	-0.221285	0	0	-0.169769	-0.0183264	-0.136178	0.183289	-0.355013	0	0	-0.0273942	-0.0634755	0.00323842	0.417474	-0.655604	0.468921	1.57706	1.5708	0	0	0.583613	-0.16391	0.734759	1.35461	1.5708	0	0
3.41	0.214316	1.41911	1.48806	0.584529	0.950914	1.01477	0.603222	-0.0334658	-0.138364	0.520013	-0.237836	0	0	-0.171671	-0.023672	-0.137002	0.1933	-0.360615	0	0	-0.0243192	-0.0564671	0.00791907	0.409885	-0.656274	0.463987	1.58192	1.5708	0	0	0.581257	-0.162316	0.734641	1.35164	1.5708	0	0
3.42	0.227018	1.41742	1.47374	0.585681	0.958762	1.01533	0.602177	-0.0281557	-0.132054	0.528385	-0.247272	0	0	-0.17199	-0.0280798	-0.138136	0.204565	-0.366243	0	0	-0.0200488	-0.050261	0.0134368	0.4027	-0.656126	0.460077	1.58581	1.5708	0	0	0.577778	-0.160877	0.733414	1.34915	1.5708	0	0
3.43	0.237397	1.4154	1.46089	0.586931	0.966624	1.01596	0.601985	-0.0222687	-0.119434	0.53897	-0.250456	0	0	-0.171033	-0.0322396	-0.139507	0.217482	-0.372234	0	0	-0.0153553	-0.0445039	0.0190349	0.395916	-0.655275	0.456861	1.58896	1.5708	0	0	0.573439	-0.159679	0.731322	1.34698	1.5708	0	0
3.44	0.249207	1.414	1.44676	0.588247	0.974555	1.01673	0.600318	-0.0154175	-0.102201	0.549334	-0.251037	0	0	-0.169799	-0.0369165	-0.140951	0.232128	-0.378847	0	0	-0.0115001	-0.0387518	0.0239503	0.389459	-0.653686	0.453846	1.59169	1.5708	0	0	0.568699	-0.158883	0.728637	1.34531	1.5708	0	0
3.45	0.266995	1.41383	1.42765	0.589585	0.982619	1.01774	0.595714	-0.00819723	-0.0854255	0.558148	-0.251993	0	0	-0.169064	-0.0427689	-0.141541	0.248064	-0.385091	0	0	-0.0093471	-0.0322287	0.0274294	0.383949	-0.65162	0.451701	1.59398	1.5708	0	0	0.563699	-0.158723	0.725508	1.34423	1.5708	0	0
3.46	0.287118	1.41398	1.40706	0.590915	0.990804	1.01882	0.58902	-0.00135138	-0.0700218	0.564386	-0.253877	0	0	-0.16758	-0.0492463	-0.141632	0.266163	-0.391968	0	0	-0.00775297	-0.0254463	0.0295352	0.379079	-0.648918	0.450294	1.5959	1.5708	0	0	0.557958	-0.159174	0.721538	1.34381	1.5708	0	0
3.47	0.30756	1.41466	1.38675	0.592179	0.99907	1.01998	0.580695	0.00437843	-0.0594698	0.568437	-0.2558	0	0	-0.165884	-0.0556911	-0.140698	0.285905	-0.399147	0	0	-0.00693019	-0.0187006	0.0303278	0.375412	-0.645832	0.450198	1.59726	1.5708	0	0	0.551445	-0.160225	0.71661	1.34414	1.5708	0	0
3.48	0.326351	1.41605	1.36842	0.593414	1.00739	1.02115	0.571313	0.00913971	-0.055589	0.571204	-0.256845	0	0	-0.163763	-0.0615827	-0.139681	0.307791	-0.406841	0	0	-0.00701684	-0.0125777	0.0298003	0.373359	-0.642309	0.45169	1.59798	1.5708	0	0	0.543894	-0.16211	0.710222	1.34583	1.5708	0	0
3.49	0.34205	1.41777	1.35387	0.594686	1.01576	1.02225	0.561804	0.012451	-0.0590482	0.573384	-0.256703	0	0	-0.160236	-0.0669382	-0.138177	0.332674	-0.415113	0	0	-0.00754432	-0.00754888	0.0276734	0.372597	-0.638123	0.454521	1.5983	1.5708	0	0	0.535076	-0.165018	0.702104	1.34942	1.5708	0	0
3.5	0.354593	1.41976	1.34297	0.595981	1.02416	1.02328	0.552358	0.0147306	-0.0676408	0.575348	-0.255312	0	0	-0.155502	-0.0716984	-0.13548	0.360094	-0.423455	0	0	-0.00819493	-0.00360781	0.0249905	0.37171	-0.633671	0.457338	1.59869	1.5708	0	0	0.526074	-0.168385	0.693941	1.35378	1.5708	0	0
3.51	0.363919	1.422	1.33534	0.597261	1.03258	1.02425	0.542849	0.0162245	-0.0785447	0.576861	-0.253605	0	0	-0.149417	-0.0755301	-0.132837	0.389598	-0.432308	0	0	-0.00896213	-0.000556733	0.0225134	0.370026	-0.62916	0.45942	1.59944	1.5708	0	0	0.517472	-0.171776	0.686514	1.35812	1.5708	0	0
